<?xml version="1.0" standalone="no"?>
<!DOCTYPE svg PUBLIC "-//W3C//DTD SVG 20010904//EN"
 "http://www.w3.org/TR/2001/REC-SVG-20010904/DTD/svg10.dtd">
<svg version="1.0" xmlns="http://www.w3.org/2000/svg"
 width="512.000000pt" height="512.000000pt" viewBox="0 0 512.000000 512.000000"
 preserveAspectRatio="xMidYMid meet">
<metadata>
Created by potrace 1.14, written by Peter Selinger 2001-2017
</metadata>
<g transform="translate(0.000000,512.000000) scale(0.100000,-0.100000)"
fill="#000000" stroke="none">
<path d="M2385 4750 c-34 -9 -88 -30 -120 -46 -79 -38 -201 -159 -239 -237
-20 -40 -38 -62 -55 -68 -14 -5 -35 -13 -46 -18 -11 -5 -50 -19 -87 -30 -36
-12 -99 -40 -140 -62 -40 -23 -82 -45 -93 -50 -40 -18 -191 -130 -280 -206
-171 -147 -357 -388 -440 -570 -8 -17 -19 -34 -25 -38 -5 -3 -10 -15 -10 -27
0 -11 -6 -32 -14 -46 -7 -15 -25 -53 -39 -84 -24 -51 -30 -58 -64 -64 -56 -10
-141 -59 -196 -112 -163 -157 -169 -410 -13 -587 24 -28 36 -53 40 -85 12 -87
38 -225 46 -241 5 -9 12 -34 16 -55 4 -22 13 -51 20 -66 8 -15 14 -38 14 -51
0 -12 4 -27 9 -32 5 -6 21 -39 36 -75 41 -101 55 -130 97 -199 22 -35 44 -74
49 -85 16 -35 33 -61 62 -97 15 -19 49 -63 77 -99 47 -60 221 -237 281 -286
94 -76 163 -126 225 -163 40 -23 79 -50 88 -60 15 -17 14 -20 -24 -46 -47 -33
-98 -99 -131 -170 -21 -45 -23 -68 -27 -242 l-4 -192 23 -6 c13 -3 519 -4
1124 -3 l1100 3 3 160 c1 88 -2 182 -8 208 -21 101 -90 207 -163 252 -27 18
-28 19 -10 36 10 10 71 52 136 93 122 76 320 243 385 325 20 25 42 51 48 56
29 27 122 157 161 224 24 42 48 83 53 91 6 8 15 26 21 40 17 41 50 69 88 76
127 24 223 116 267 254 20 65 20 745 0 823 -40 152 -140 255 -300 307 -52 17
-65 34 -102 130 -26 67 -84 190 -109 230 -12 19 -20 42 -17 50 2 8 100 112
216 230 267 270 281 288 312 408 36 136 -8 292 -112 396 -73 73 -200 126 -302
126 -59 0 -179 -38 -230 -73 -20 -15 -136 -126 -257 -247 -121 -121 -227 -223
-236 -225 -10 -3 -32 3 -50 15 -19 11 -43 24 -54 29 -11 5 -63 30 -115 55 -52
25 -100 46 -106 46 -7 0 -25 7 -40 15 -16 8 -36 15 -46 15 -10 0 -34 31 -63
80 -46 78 -135 173 -192 204 -155 83 -302 106 -438 66z m1882 -286 c34 -13 46
-25 63 -62 20 -41 20 -50 9 -91 -11 -41 -44 -78 -317 -353 -322 -325 -313
-312 -272 -367 102 -131 174 -263 226 -408 37 -105 74 -249 74 -288 0 -37 15
-38 68 -5 95 58 197 31 222 -58 6 -22 10 -172 10 -364 0 -318 -1 -329 -21
-349 -13 -13 -30 -19 -47 -17 -43 5 -62 55 -62 164 0 62 -4 96 -14 109 -16 22
-15 22 -31 -93 -3 -24 -10 -51 -15 -60 -5 -9 -19 -51 -30 -92 -12 -41 -30 -93
-40 -115 -42 -92 -82 -172 -100 -200 -11 -16 -24 -41 -30 -54 -16 -36 -124
-175 -209 -270 -128 -140 -293 -262 -486 -356 -177 -87 -309 -127 -515 -159
l-75 -11 -3 -38 c-6 -70 57 -170 133 -210 64 -34 89 -38 293 -45 l194 -7 34
-37 c20 -22 34 -48 34 -63 l0 -25 -835 0 -835 0 0 25 c0 15 14 41 34 62 l34
38 194 7 c106 4 207 10 223 14 104 24 212 154 203 245 l-3 34 -75 11 c-109 17
-202 35 -225 44 -11 4 -45 17 -75 29 -31 11 -62 21 -69 21 -14 0 -281 128
-291 139 -11 12 -70 51 -77 51 -4 0 -33 22 -64 48 -30 26 -79 67 -107 91 -69
57 -204 216 -271 316 -48 71 -112 189 -155 285 -29 66 -86 245 -86 272 0 15
-5 39 -11 55 -6 15 -17 92 -24 170 -12 142 -22 173 -54 173 -40 1 -91 75 -91
133 0 25 10 44 40 77 l39 42 65 -4 c50 -3 71 -9 89 -26 13 -12 33 -22 44 -22
18 0 22 8 28 63 3 34 12 80 20 102 7 22 23 70 34 108 11 37 25 75 30 85 19 38
51 110 51 115 0 14 91 154 124 192 20 22 42 48 51 58 8 9 15 21 15 25 0 4 13
19 30 32 16 14 29 28 30 32 0 7 92 99 122 123 104 83 147 115 153 115 4 0 24
12 44 28 37 28 149 85 189 97 12 3 22 10 22 15 0 5 16 12 35 16 19 3 35 10 35
15 0 4 17 11 38 14 20 3 52 13 70 21 18 8 46 14 63 14 16 0 42 6 57 14 16 8
90 19 175 25 162 13 364 2 446 -25 25 -8 56 -14 71 -14 14 0 34 -6 45 -14 11
-7 37 -16 59 -20 21 -4 46 -11 55 -16 9 -5 39 -19 66 -30 75 -31 118 -54 133
-67 7 -7 22 -13 33 -13 10 0 19 -5 19 -10 0 -6 8 -14 18 -17 9 -4 46 -28 81
-55 38 -29 74 -48 90 -48 21 0 85 59 321 296 272 273 340 332 380 334 8 0 33
-7 57 -16z"/>
<path d="M1724 3896 c-36 -37 -37 -46 -13 -72 28 -30 46 -30 75 -3 19 18 21
25 12 45 -6 13 -21 30 -33 38 -19 12 -23 12 -41 -8z"/>
</g>
</svg>
